# Blender 5.0.1
# www.blender.org
mtllib Skybox.mtl
o Cube.001
v -47.807392 47.807407 -47.807404
v -47.807407 -47.807396 -47.807396
v -47.807384 47.807415 47.807396
v -47.807411 -47.807381 47.807404
v 47.807411 47.807388 -47.807404
v 47.807392 -47.807415 -47.807396
v 47.807411 47.807388 47.807396
v 47.807392 -47.807407 47.807404
v 54.780838 -54.780865 -28.364120
v 58.283695 -58.283722 0.000002
v 54.780838 -54.780857 28.364128
v -28.364140 -54.780857 -54.780846
v -0.000010 -58.283710 -58.283703
v 28.364119 -54.780865 -54.780838
v -54.780853 28.364136 -54.780853
v -58.283707 0.000004 -58.283710
v -54.780861 -28.364122 -54.780846
v 54.780838 -28.364126 54.780853
v 58.283707 -0.000006 58.283710
v 54.780861 28.364120 54.780846
v -54.780838 28.364143 54.780849
v -58.283710 0.000012 58.283707
v -54.780861 -28.364115 54.780853
v 54.780861 28.364113 -54.780853
v 58.283710 -0.000014 -58.283707
v 54.780838 -28.364134 -54.780846
v -28.364119 54.780846 54.780857
v 0.000009 58.283714 58.283707
v 28.364140 54.780842 54.780849
v -54.780838 54.780849 -28.364128
v -58.283695 58.283718 -0.000004
v -54.780838 54.780865 28.364124
v 28.364117 -54.780857 54.780857
v -0.000009 -58.283703 58.283710
v -28.364130 -54.780834 54.780853
v 54.780861 54.780857 28.364120
v 58.283718 58.283695 -0.000005
v 54.780861 54.780834 -28.364128
v 28.364140 54.780849 -54.780853
v 0.000008 58.283703 -58.283710
v -28.364119 54.780857 -54.780853
v -54.780861 -54.780849 28.364128
v -58.283718 -58.283695 0.000004
v -54.780853 -54.780842 -28.364120
v -30.229286 69.702232 -30.229307
v 0.000010 74.754402 -31.853165
v 30.229309 69.702225 -30.229301
v -31.853148 74.754395 -0.000005
v 0.000012 80.269218 -0.000007
v 31.853170 74.754387 -0.000007
v -30.229284 69.702225 30.229292
v 0.000012 74.754402 31.853153
v 30.229307 69.702209 30.229292
v -30.229303 -30.229286 69.702217
v -31.853159 0.000010 74.754402
v -30.229290 30.229309 69.702225
v -0.000004 -31.853153 74.754395
v -0.000002 0.000006 80.269218
v 0.000003 31.853165 74.754402
v 30.229292 -30.229298 69.702225
v 31.853159 0.000001 74.754402
v 30.229303 30.229296 69.702217
v 69.702209 -30.229307 30.229298
v 74.754402 -0.000011 31.853155
v 69.702225 30.229288 30.229294
v 74.754395 -31.853170 0.000000
v 80.269218 -0.000012 -0.000001
v 74.754395 31.853144 -0.000002
v 69.702225 -30.229311 -30.229296
v 74.754402 -0.000013 -31.853159
v 69.702232 30.229284 -30.229300
v 30.229286 -69.702232 -30.229292
v -0.000011 -74.754402 -31.853153
v -30.229309 -69.702225 -30.229290
v 31.853148 -74.754410 0.000007
v -0.000013 -80.269218 0.000007
v -31.853170 -74.754387 0.000005
v 30.229284 -69.702225 30.229303
v -0.000013 -74.754402 31.853165
v -30.229309 -69.702209 30.229303
v -69.702225 -30.229288 -30.229296
v -74.754402 0.000008 -31.853159
v -69.702225 30.229307 -30.229298
v -74.754410 -31.853148 0.000003
v -80.269218 0.000011 -0.000001
v -74.754387 31.853170 -0.000003
v -69.702225 -30.229282 30.229300
v -74.754402 0.000014 31.853159
v -69.702209 30.229311 30.229296
v 30.229290 -30.229309 -69.702217
v 31.853155 -0.000012 -74.754402
v 30.229301 30.229286 -69.702225
v -0.000007 -31.853165 -74.754395
v -0.000002 -0.000006 -80.269218
v 0.000005 31.853149 -74.754402
v -30.229303 -30.229296 -69.702225
v -31.853159 0.000000 -74.754402
v -30.229292 30.229298 -69.702217
vn 0.3362 -0.8797 0.3362
vn -0.0000 -1.0000 -0.0000
vn 0.3553 -0.9348 -0.0000
vn -0.3362 -0.8797 0.3362
vn -0.0000 -0.9348 0.3553
vn 0.3362 -0.8797 -0.3362
vn -0.3362 -0.8797 -0.3362
vn -0.0000 -0.9348 -0.3553
vn 0.5774 -0.5774 0.5774
vn 0.6737 -0.6737 0.3038
vn 0.3038 -0.6737 0.6737
vn -0.3038 -0.6737 0.6737
vn -0.0000 -0.7071 0.7071
vn -0.5774 -0.5774 0.5774
vn -0.6737 -0.6737 0.3038
vn -0.3553 -0.9348 -0.0000
vn -0.6737 -0.6737 -0.3038
vn -0.5774 -0.5774 -0.5774
vn -0.3038 -0.6737 -0.6737
vn -0.0000 -0.7071 -0.7071
vn 0.3038 -0.6737 -0.6737
vn 0.5774 -0.5774 -0.5774
vn 0.6737 -0.6737 -0.3038
vn 0.7071 -0.7071 -0.0000
vn 0.3362 0.3362 -0.8797
vn -0.0000 -0.0000 -1.0000
vn -0.0000 0.3553 -0.9348
vn 0.3362 -0.3362 -0.8797
vn 0.3553 -0.0000 -0.9348
vn -0.3362 0.3362 -0.8797
vn -0.3362 -0.3362 -0.8797
vn -0.3553 -0.0000 -0.9348
vn 0.5774 0.5774 -0.5774
vn 0.3038 0.6737 -0.6737
vn 0.6737 0.3038 -0.6737
vn 0.6737 -0.3038 -0.6737
vn 0.7071 -0.0000 -0.7071
vn -0.0000 -0.3553 -0.9348
vn -0.6737 -0.3038 -0.6737
vn -0.7071 -0.0000 -0.7071
vn -0.6737 0.3038 -0.6737
vn -0.5774 0.5774 -0.5774
vn -0.3038 0.6737 -0.6737
vn -0.0000 0.7071 -0.7071
vn -0.8797 0.3362 -0.3362
vn -1.0000 -0.0000 -0.0000
vn -0.9348 0.3553 -0.0000
vn -0.8797 -0.3362 -0.3362
vn -0.9348 -0.0000 -0.3553
vn -0.8797 0.3362 0.3362
vn -0.8797 -0.3362 0.3362
vn -0.9348 -0.0000 0.3553
vn -0.6737 0.6737 -0.3038
vn -0.9348 -0.3553 -0.0000
vn -0.6737 -0.3038 0.6737
vn -0.7071 -0.0000 0.7071
vn -0.6737 0.3038 0.6737
vn -0.5774 0.5774 0.5774
vn -0.6737 0.6737 0.3038
vn -0.7071 0.7071 -0.0000
vn -0.3362 0.8797 0.3362
vn -0.0000 1.0000 -0.0000
vn -0.3553 0.9348 -0.0000
vn 0.3362 0.8797 0.3362
vn -0.0000 0.9348 0.3553
vn -0.3362 0.8797 -0.3362
vn 0.3362 0.8797 -0.3362
vn -0.0000 0.9348 -0.3553
vn -0.3038 0.6737 0.6737
vn 0.3038 0.6737 0.6737
vn -0.0000 0.7071 0.7071
vn 0.5774 0.5774 0.5774
vn 0.6737 0.6737 0.3038
vn 0.3553 0.9348 -0.0000
vn 0.6737 0.6737 -0.3038
vn 0.8797 0.3362 0.3362
vn 1.0000 -0.0000 -0.0000
vn 0.9348 0.3553 -0.0000
vn 0.8797 -0.3362 0.3362
vn 0.9348 -0.0000 0.3553
vn 0.8797 0.3362 -0.3362
vn 0.8797 -0.3362 -0.3362
vn 0.9348 -0.0000 -0.3553
vn 0.6737 0.3038 0.6737
vn 0.6737 -0.3038 0.6737
vn 0.7071 -0.0000 0.7071
vn 0.9348 -0.3553 -0.0000
vn 0.7071 0.7071 -0.0000
vn -0.3362 0.3362 0.8797
vn -0.0000 -0.0000 1.0000
vn -0.0000 0.3553 0.9348
vn -0.3362 -0.3362 0.8797
vn -0.3553 -0.0000 0.9348
vn 0.3362 0.3362 0.8797
vn 0.3362 -0.3362 0.8797
vn 0.3553 -0.0000 0.9348
vn -0.0000 -0.3553 0.9348
vn -0.7071 -0.7071 -0.0000
vt 0.437466 0.750000
vt 0.374932 0.833333
vt 0.374932 0.750000
vt 0.437466 0.916667
vt 0.437466 0.833333
vt 0.312398 0.750000
vt 0.312398 0.916667
vt 0.312398 0.833333
vt 0.497615 0.664206
vt 0.437466 0.664206
vt 0.497615 0.750000
vt 0.497615 0.916667
vt 0.497615 0.833333
vt 0.497615 1.000000
vt 0.437466 1.000000
vt 0.374932 0.916667
vt 0.312399 1.000000
vt 0.252249 1.000000
vt 0.252249 0.916667
vt 0.252249 0.833333
vt 0.252249 0.750000
vt 0.252249 0.664206
vt 0.312398 0.664206
vt 0.374932 0.664206
vt 0.187331 0.416667
vt 0.124797 0.500000
vt 0.124797 0.416667
vt 0.187331 0.583333
vt 0.187331 0.500000
vt 0.062263 0.416667
vt 0.062263 0.583333
vt 0.062263 0.500000
vt 0.252018 0.336614
vt 0.187331 0.336614
vt 0.249865 0.416667
vt 0.249865 0.583333
vt 0.249865 0.500000
vt 0.187331 0.664206
vt 0.124797 0.583333
vt 0.062263 0.664206
vt -0.000271 0.664206
vt -0.000271 0.583334
vt -0.000271 0.500000
vt -0.000271 0.416667
vt -0.000271 0.336615
vt 0.062263 0.336614
vt 0.124797 0.336614
vt 0.937737 0.416667
vt 0.875203 0.500000
vt 0.875203 0.416667
vt 0.937737 0.583333
vt 0.937737 0.500000
vt 0.812669 0.416667
vt 0.812669 0.583333
vt 0.812669 0.500000
vt 1.000271 0.336614
vt 0.937737 0.336614
vt 1.000271 0.416667
vt 1.000271 0.583333
vt 1.000271 0.500000
vt 1.000271 0.664206
vt 0.937737 0.664206
vt 0.875203 0.583333
vt 0.812669 0.664206
vt 0.750136 0.664206
vt 0.750135 0.583333
vt 0.750136 0.500000
vt 0.750136 0.416667
vt 0.750136 0.336614
vt 0.812669 0.336614
vt 0.875203 0.336614
vt 0.437466 0.083333
vt 0.374932 0.166667
vt 0.374932 0.083333
vt 0.437466 0.250000
vt 0.437466 0.166667
vt 0.312398 0.083333
vt 0.312398 0.250000
vt 0.312398 0.166667
vt 0.498837 0.004922
vt 0.437466 0.004922
vt 0.498837 0.083333
vt 0.498837 0.250000
vt 0.498837 0.166667
vt 0.498838 0.336614
vt 0.437466 0.336614
vt 0.374932 0.250000
vt 0.312398 0.336614
vt 0.252018 0.250000
vt 0.252018 0.166667
vt 0.252018 0.083333
vt 0.252018 0.004922
vt 0.312398 0.004922
vt 0.374932 0.004922
vt 0.437466 0.416667
vt 0.374932 0.500000
vt 0.374932 0.416667
vt 0.437466 0.583333
vt 0.437466 0.500000
vt 0.312398 0.416667
vt 0.312398 0.583333
vt 0.312398 0.500000
vt 0.500000 0.416667
vt 0.500000 0.583333
vt 0.500000 0.500000
vt 0.374932 0.583333
vt 0.374932 0.336614
vt 0.687602 0.416667
vt 0.625068 0.500000
vt 0.625068 0.416667
vt 0.687602 0.583333
vt 0.687602 0.500000
vt 0.562534 0.416667
vt 0.562534 0.583333
vt 0.562534 0.500000
vt 0.687602 0.336614
vt 0.687602 0.664206
vt 0.625068 0.583333
vt 0.562534 0.664206
vt 0.562534 0.336614
vt 0.625068 0.336614
vt 0.374932 1.000000
vt 0.124797 0.664206
vt 0.875203 0.664206
vt 0.625068 0.664206
s 1
usemtl Material.001
f 45/1/1 49/2/2 48/3/3
f 47/4/4 49/2/2 46/5/5
f 49/2/2 51/6/6 48/3/3
f 49/2/2 53/7/7 52/8/8
f 1/9/9 45/1/1 30/10/10
f 41/11/11 46/5/5 45/1/1
f 39/12/12 46/5/5 40/13/13
f 5/14/14 47/4/4 39/12/12
f 38/15/15 50/16/16 47/4/4
f 50/16/16 36/17/17 53/7/7
f 53/7/7 7/18/18 29/19/19
f 52/8/8 29/19/19 28/20/20
f 52/8/8 27/21/21 51/6/6
f 51/6/6 3/22/22 32/23/23
f 48/3/3 32/23/23 31/24/24
f 30/10/10 48/3/3 31/24/24
f 54/25/25 58/26/26 57/27/27
f 56/28/28 58/26/26 55/29/29
f 58/26/26 60/30/30 57/27/27
f 58/26/26 62/31/31 61/32/32
f 4/33/33 54/25/25 35/34/34
f 23/35/35 55/29/29 54/25/25
f 21/36/36 55/29/29 22/37/37
f 3/22/22 56/28/28 21/36/36
f 27/38/21 59/39/38 56/28/28
f 59/39/38 29/40/19 62/31/31
f 62/31/31 7/41/18 20/42/39
f 61/32/32 20/42/39 19/43/40
f 61/32/32 18/44/41 60/30/30
f 60/30/30 8/45/42 33/46/43
f 57/27/27 33/46/43 34/47/44
f 35/34/34 57/27/27 34/47/44
f 63/48/45 67/49/46 66/50/47
f 65/51/48 67/49/46 64/52/49
f 67/49/46 69/53/50 66/50/47
f 67/49/46 71/54/51 70/55/52
f 8/56/42 63/48/45 11/57/53
f 18/58/41 64/52/49 63/48/45
f 20/59/39 64/52/49 19/60/40
f 7/61/18 65/51/48 20/59/39
f 36/62/17 68/63/54 65/51/48
f 68/63/54 38/64/15 71/54/51
f 71/54/51 5/65/14 24/66/55
f 70/55/52 24/66/55 25/67/56
f 70/55/52 26/68/57 69/53/50
f 69/53/50 6/69/58 9/70/59
f 66/50/47 9/70/59 10/71/60
f 11/57/53 66/50/47 10/71/60
f 72/72/61 76/73/62 75/74/63
f 74/75/64 76/73/62 73/76/65
f 76/73/62 78/77/66 75/74/63
f 76/73/62 80/78/67 79/79/68
f 6/80/58 72/72/61 9/81/59
f 14/82/69 73/76/65 72/72/61
f 12/83/70 73/76/65 13/84/71
f 2/85/72 74/75/64 12/83/70
f 44/86/73 77/87/74 74/75/64
f 77/87/74 42/88/75 80/78/67
f 80/78/67 4/33/33 35/89/34
f 79/79/68 35/89/34 34/90/44
f 79/79/68 33/91/43 78/77/66
f 78/77/66 8/92/42 11/93/53
f 75/74/63 11/93/53 10/94/60
f 9/81/59 75/74/63 10/94/60
f 81/95/76 85/96/77 84/97/78
f 83/98/79 85/96/77 82/99/80
f 85/96/77 87/100/81 84/97/78
f 85/96/77 89/101/82 88/102/83
f 2/85/72 81/95/76 44/86/73
f 17/103/84 82/99/80 81/95/76
f 15/104/85 82/99/80 16/105/86
f 1/9/9 83/98/79 15/104/85
f 30/10/10 86/106/87 83/98/79
f 86/106/87 32/23/23 89/101/82
f 89/101/82 3/22/22 21/36/36
f 88/102/83 21/36/36 22/37/37
f 88/102/83 23/35/35 87/100/81
f 87/100/81 4/33/33 42/88/75
f 84/97/78 42/88/75 43/107/88
f 44/86/73 84/97/78 43/107/88
f 90/108/89 94/109/90 93/110/91
f 92/111/92 94/109/90 91/112/93
f 94/109/90 96/113/94 93/110/91
f 94/109/90 98/114/95 97/115/96
f 6/69/58 90/108/89 14/116/69
f 26/68/57 91/112/93 90/108/89
f 24/66/55 91/112/93 25/67/56
f 5/65/14 92/111/92 24/66/55
f 39/117/12 95/118/97 92/111/92
f 95/118/97 41/119/11 98/114/95
f 98/114/95 1/9/9 15/104/85
f 97/115/96 15/104/85 16/105/86
f 97/115/96 17/103/84 96/113/94
f 96/113/94 2/85/72 12/120/70
f 93/110/91 12/120/70 13/121/71
f 14/116/69 93/110/91 13/121/71
f 45/1/1 46/5/5 49/2/2
f 47/4/4 50/16/16 49/2/2
f 49/2/2 52/8/8 51/6/6
f 49/2/2 50/16/16 53/7/7
f 1/9/9 41/11/11 45/1/1
f 41/11/11 40/13/13 46/5/5
f 39/12/12 47/4/4 46/5/5
f 5/14/14 38/15/15 47/4/4
f 38/15/15 37/122/98 50/16/16
f 50/16/16 37/122/98 36/17/17
f 53/7/7 36/17/17 7/18/18
f 52/8/8 53/7/7 29/19/19
f 52/8/8 28/20/20 27/21/21
f 51/6/6 27/21/21 3/22/22
f 48/3/3 51/6/6 32/23/23
f 30/10/10 45/1/1 48/3/3
f 54/25/25 55/29/29 58/26/26
f 56/28/28 59/39/38 58/26/26
f 58/26/26 61/32/32 60/30/30
f 58/26/26 59/39/38 62/31/31
f 4/33/33 23/35/35 54/25/25
f 23/35/35 22/37/37 55/29/29
f 21/36/36 56/28/28 55/29/29
f 3/22/22 27/38/21 56/28/28
f 27/38/21 28/123/20 59/39/38
f 59/39/38 28/123/20 29/40/19
f 62/31/31 29/40/19 7/41/18
f 61/32/32 62/31/31 20/42/39
f 61/32/32 19/43/40 18/44/41
f 60/30/30 18/44/41 8/45/42
f 57/27/27 60/30/30 33/46/43
f 35/34/34 54/25/25 57/27/27
f 63/48/45 64/52/49 67/49/46
f 65/51/48 68/63/54 67/49/46
f 67/49/46 70/55/52 69/53/50
f 67/49/46 68/63/54 71/54/51
f 8/56/42 18/58/41 63/48/45
f 18/58/41 19/60/40 64/52/49
f 20/59/39 65/51/48 64/52/49
f 7/61/18 36/62/17 65/51/48
f 36/62/17 37/124/98 68/63/54
f 68/63/54 37/124/98 38/64/15
f 71/54/51 38/64/15 5/65/14
f 70/55/52 71/54/51 24/66/55
f 70/55/52 25/67/56 26/68/57
f 69/53/50 26/68/57 6/69/58
f 66/50/47 69/53/50 9/70/59
f 11/57/53 63/48/45 66/50/47
f 72/72/61 73/76/65 76/73/62
f 74/75/64 77/87/74 76/73/62
f 76/73/62 79/79/68 78/77/66
f 76/73/62 77/87/74 80/78/67
f 6/80/58 14/82/69 72/72/61
f 14/82/69 13/84/71 73/76/65
f 12/83/70 74/75/64 73/76/65
f 2/85/72 44/86/73 74/75/64
f 44/86/73 43/107/88 77/87/74
f 77/87/74 43/107/88 42/88/75
f 80/78/67 42/88/75 4/33/33
f 79/79/68 80/78/67 35/89/34
f 79/79/68 34/90/44 33/91/43
f 78/77/66 33/91/43 8/92/42
f 75/74/63 78/77/66 11/93/53
f 9/81/59 72/72/61 75/74/63
f 81/95/76 82/99/80 85/96/77
f 83/98/79 86/106/87 85/96/77
f 85/96/77 88/102/83 87/100/81
f 85/96/77 86/106/87 89/101/82
f 2/85/72 17/103/84 81/95/76
f 17/103/84 16/105/86 82/99/80
f 15/104/85 83/98/79 82/99/80
f 1/9/9 30/10/10 83/98/79
f 30/10/10 31/24/24 86/106/87
f 86/106/87 31/24/24 32/23/23
f 89/101/82 32/23/23 3/22/22
f 88/102/83 89/101/82 21/36/36
f 88/102/83 22/37/37 23/35/35
f 87/100/81 23/35/35 4/33/33
f 84/97/78 87/100/81 42/88/75
f 44/86/73 81/95/76 84/97/78
f 90/108/89 91/112/93 94/109/90
f 92/111/92 95/118/97 94/109/90
f 94/109/90 97/115/96 96/113/94
f 94/109/90 95/118/97 98/114/95
f 6/69/58 26/68/57 90/108/89
f 26/68/57 25/67/56 91/112/93
f 24/66/55 92/111/92 91/112/93
f 5/65/14 39/117/12 92/111/92
f 39/117/12 40/125/13 95/118/97
f 95/118/97 40/125/13 41/119/11
f 98/114/95 41/119/11 1/9/9
f 97/115/96 98/114/95 15/104/85
f 97/115/96 16/105/86 17/103/84
f 96/113/94 17/103/84 2/85/72
f 93/110/91 96/113/94 12/120/70
f 14/116/69 90/108/89 93/110/91
