# Blender 5.0.1
# www.blender.org
mtllib maze3.mtl
o maze3
v -40.044975 -0.013805 39.993446
v -40.044975 1.013805 39.993446
v -40.044975 -0.013805 20.006554
v -40.044975 1.013805 20.006554
v -38.955025 -0.013805 39.993446
v -38.955025 1.013805 39.993446
v -38.955025 -0.013805 20.006554
v -38.955025 1.013805 20.006554
v -1.044975 -0.013805 60.054359
v -1.044975 1.013805 60.054359
v -1.044975 -0.013805 -0.054361
v -1.044975 1.013805 -0.054361
v 0.044975 -0.013805 60.054359
v 0.044975 1.013805 60.054359
v 0.044975 -0.013805 -0.054361
v 0.044975 1.013805 -0.054361
v -0.389790 -0.013805 60.044975
v -0.389790 1.013805 60.044975
v -59.610210 -0.013805 60.044975
v -59.610210 1.013805 60.044975
v -0.389790 -0.013805 58.955025
v -0.389790 1.013805 58.955025
v -59.610210 -0.013805 58.955025
v -59.610210 1.013805 58.955025
v -0.389790 -0.013805 1.044975
v -0.389790 1.013805 1.044975
v -59.610210 -0.013805 1.044977
v -59.610210 1.013805 1.044977
v -0.389790 -0.013805 -0.044975
v -0.389790 1.013805 -0.044975
v -59.610210 -0.013805 -0.044973
v -59.610210 1.013805 -0.044973
v -60.044975 -0.013805 60.054359
v -60.044975 1.013805 60.054359
v -60.044975 -0.013805 -0.054361
v -60.044975 1.013805 -0.054361
v -58.955025 -0.013805 60.054359
v -58.955025 1.013805 60.054359
v -58.955025 -0.013805 -0.054361
v -58.955025 1.013805 -0.054361
v -20.006554 -0.013805 50.044971
v -20.006554 1.013805 50.044971
v -39.993446 -0.013805 50.044971
v -39.993446 1.013805 50.044971
v -20.006554 -0.013805 48.955025
v -20.006554 1.013805 48.955025
v -39.993446 -0.013805 48.955025
v -39.993446 1.013805 48.955025
v -20.006554 -0.013805 11.044975
v -20.006554 1.013805 11.044975
v -39.993446 -0.013805 11.044975
v -39.993446 1.013805 11.044975
v -20.006554 -0.013805 9.955027
v -20.006554 1.013805 9.955027
v -39.993446 -0.013805 9.955027
v -39.993446 1.013805 9.955027
v -11.044975 -0.013805 39.993446
v -11.044975 1.013805 39.993446
v -11.044975 -0.013805 20.006554
v -11.044975 1.013805 20.006554
v -9.955025 -0.013805 39.993446
v -9.955025 1.013805 39.993446
v -9.955025 -0.013805 20.006554
v -9.955025 1.013805 20.006554
v -50.044975 -0.013805 39.993446
v -50.044975 1.013805 39.993446
v -50.044975 -0.013805 20.006554
v -50.044975 1.013805 20.006554
v -48.955025 -0.013805 39.993446
v -48.955025 1.013805 39.993446
v -48.955025 -0.013805 20.006554
v -48.955025 1.013805 20.006554
v -21.044975 -0.013805 39.993446
v -21.044975 1.013805 39.993446
v -21.044975 -0.013805 20.006554
v -21.044975 1.013805 20.006554
v -19.955025 -0.013805 39.993446
v -19.955025 1.013805 39.993446
v -19.955025 -0.013805 20.006554
v -19.955025 1.013805 20.006554
v -20.006554 -0.013805 40.044975
v -20.006554 1.013805 40.044975
v -39.993446 -0.013805 40.044975
v -39.993446 1.013805 40.044975
v -20.006554 -0.013805 38.955025
v -20.006554 1.013805 38.955025
v -39.993446 -0.013805 38.955025
v -39.993446 1.013805 38.955025
vn -1.0000 -0.0000 -0.0000
vn -0.0000 -0.0000 -1.0000
vn 1.0000 -0.0000 -0.0000
vn -0.0000 -0.0000 1.0000
vn -0.0000 -1.0000 -0.0000
vn -0.0000 1.0000 -0.0000
vt 0.625000 0.000000
vt 0.375000 0.250000
vt 0.375000 0.000000
vt 0.625000 0.250000
vt 0.375000 0.500000
vt 0.625000 0.500000
vt 0.375000 0.750000
vt 0.625000 0.750000
vt 0.375000 1.000000
vt 0.125000 0.750000
vt 0.125000 0.500000
vt 0.875000 0.500000
vt 0.625000 1.000000
vt 0.875000 0.750000
s 0
usemtl Material.001
f 2/1/1 3/2/1 1/3/1
f 4/4/2 7/5/2 3/2/2
f 8/6/3 5/7/3 7/5/3
f 6/8/4 1/9/4 5/7/4
f 7/5/5 1/10/5 3/11/5
f 4/12/6 6/8/6 8/6/6
f 10/1/1 11/2/1 9/3/1
f 12/4/2 15/5/2 11/2/2
f 16/6/3 13/7/3 15/5/3
f 14/8/4 9/9/4 13/7/4
f 15/5/5 9/10/5 11/11/5
f 12/12/6 14/8/6 16/6/6
f 18/1/4 19/2/4 17/3/4
f 20/4/1 23/5/1 19/2/1
f 24/6/2 21/7/2 23/5/2
f 22/8/3 17/9/3 21/7/3
f 23/5/5 17/10/5 19/11/5
f 20/12/6 22/8/6 24/6/6
f 26/1/4 27/2/4 25/3/4
f 28/4/1 31/5/1 27/2/1
f 32/6/2 29/7/2 31/5/2
f 30/8/3 25/9/3 29/7/3
f 31/5/5 25/10/5 27/11/5
f 28/12/6 30/8/6 32/6/6
f 34/1/1 35/2/1 33/3/1
f 36/4/2 39/5/2 35/2/2
f 40/6/3 37/7/3 39/5/3
f 38/8/4 33/9/4 37/7/4
f 39/5/5 33/10/5 35/11/5
f 36/12/6 38/8/6 40/6/6
f 42/1/4 43/2/4 41/3/4
f 44/4/1 47/5/1 43/2/1
f 48/6/2 45/7/2 47/5/2
f 46/8/3 41/9/3 45/7/3
f 47/5/5 41/10/5 43/11/5
f 44/12/6 46/8/6 48/6/6
f 50/1/4 51/2/4 49/3/4
f 52/4/1 55/5/1 51/2/1
f 56/6/2 53/7/2 55/5/2
f 54/8/3 49/9/3 53/7/3
f 55/5/5 49/10/5 51/11/5
f 52/12/6 54/8/6 56/6/6
f 58/1/1 59/2/1 57/3/1
f 60/4/2 63/5/2 59/2/2
f 64/6/3 61/7/3 63/5/3
f 62/8/4 57/9/4 61/7/4
f 63/5/5 57/10/5 59/11/5
f 60/12/6 62/8/6 64/6/6
f 66/1/1 67/2/1 65/3/1
f 68/4/2 71/5/2 67/2/2
f 72/6/3 69/7/3 71/5/3
f 70/8/4 65/9/4 69/7/4
f 71/5/5 65/10/5 67/11/5
f 68/12/6 70/8/6 72/6/6
f 74/1/1 75/2/1 73/3/1
f 76/4/2 79/5/2 75/2/2
f 80/6/3 77/7/3 79/5/3
f 78/8/4 73/9/4 77/7/4
f 79/5/5 73/10/5 75/11/5
f 76/12/6 78/8/6 80/6/6
f 82/1/4 83/2/4 81/3/4
f 84/4/1 87/5/1 83/2/1
f 88/6/2 85/7/2 87/5/2
f 86/8/3 81/9/3 85/7/3
f 87/5/5 81/10/5 83/11/5
f 84/12/6 86/8/6 88/6/6
f 2/1/1 4/4/1 3/2/1
f 4/4/2 8/6/2 7/5/2
f 8/6/3 6/8/3 5/7/3
f 6/8/4 2/13/4 1/9/4
f 7/5/5 5/7/5 1/10/5
f 4/12/6 2/14/6 6/8/6
f 10/1/1 12/4/1 11/2/1
f 12/4/2 16/6/2 15/5/2
f 16/6/3 14/8/3 13/7/3
f 14/8/4 10/13/4 9/9/4
f 15/5/5 13/7/5 9/10/5
f 12/12/6 10/14/6 14/8/6
f 18/1/4 20/4/4 19/2/4
f 20/4/1 24/6/1 23/5/1
f 24/6/2 22/8/2 21/7/2
f 22/8/3 18/13/3 17/9/3
f 23/5/5 21/7/5 17/10/5
f 20/12/6 18/14/6 22/8/6
f 26/1/4 28/4/4 27/2/4
f 28/4/1 32/6/1 31/5/1
f 32/6/2 30/8/2 29/7/2
f 30/8/3 26/13/3 25/9/3
f 31/5/5 29/7/5 25/10/5
f 28/12/6 26/14/6 30/8/6
f 34/1/1 36/4/1 35/2/1
f 36/4/2 40/6/2 39/5/2
f 40/6/3 38/8/3 37/7/3
f 38/8/4 34/13/4 33/9/4
f 39/5/5 37/7/5 33/10/5
f 36/12/6 34/14/6 38/8/6
f 42/1/4 44/4/4 43/2/4
f 44/4/1 48/6/1 47/5/1
f 48/6/2 46/8/2 45/7/2
f 46/8/3 42/13/3 41/9/3
f 47/5/5 45/7/5 41/10/5
f 44/12/6 42/14/6 46/8/6
f 50/1/4 52/4/4 51/2/4
f 52/4/1 56/6/1 55/5/1
f 56/6/2 54/8/2 53/7/2
f 54/8/3 50/13/3 49/9/3
f 55/5/5 53/7/5 49/10/5
f 52/12/6 50/14/6 54/8/6
f 58/1/1 60/4/1 59/2/1
f 60/4/2 64/6/2 63/5/2
f 64/6/3 62/8/3 61/7/3
f 62/8/4 58/13/4 57/9/4
f 63/5/5 61/7/5 57/10/5
f 60/12/6 58/14/6 62/8/6
f 66/1/1 68/4/1 67/2/1
f 68/4/2 72/6/2 71/5/2
f 72/6/3 70/8/3 69/7/3
f 70/8/4 66/13/4 65/9/4
f 71/5/5 69/7/5 65/10/5
f 68/12/6 66/14/6 70/8/6
f 74/1/1 76/4/1 75/2/1
f 76/4/2 80/6/2 79/5/2
f 80/6/3 78/8/3 77/7/3
f 78/8/4 74/13/4 73/9/4
f 79/5/5 77/7/5 73/10/5
f 76/12/6 74/14/6 78/8/6
f 82/1/4 84/4/4 83/2/4
f 84/4/1 88/6/1 87/5/1
f 88/6/2 86/8/2 85/7/2
f 86/8/3 82/13/3 81/9/3
f 87/5/5 85/7/5 81/10/5
f 84/12/6 82/14/6 86/8/6
